<?xml version="1.0" encoding="UTF-8"?>
<svg width="40px" height="40px" viewBox="0 0 40 40" version="1.1" xmlns="http://www.w3.org/2000/svg" xmlns:xlink="http://www.w3.org/1999/xlink">
    <!-- Generator: Sketch 53.2 (72643) - https://sketchapp.com -->
    <title>Group 15</title>
    <desc>Created with Sketch.</desc>
    <g id="Page-1" stroke="none" stroke-width="1" fill="none" fill-rule="evenodd">
        <g id="Header-1" transform="translate(-674.000000, -34.000000)" fill-rule="nonzero">
            <g id="Group-7">
                <g id="Group-5" transform="translate(440.000000, 34.000000)">
                    <g id="Group-17" transform="translate(138.000000, 0.000000)">
                        <g id="Group-15" transform="translate(96.000000, 0.000000)">
                            <rect id="Rectangle-8-Copy-3" fill="#3A589B" x="0" y="0" width="40" height="40" rx="4"></rect>
                            <g id="if_facebook_306192" transform="translate(13.333333, 6.666667)" fill="#FFFFFF">
                                <path d="M13.125,14.2222222 L14,9.77777778 L9.625,9.77866667 L9.625,6.22222222 C9.625,4.84977778 10.311,4.44444444 12.25,4.44444444 L14,4.44444444 L14,0 C14,0 12.20625,0 10.5,0 C6.937,0 4.375,2.16444444 4.375,6.22222222 L4.375,9.77777778 L0,9.77777778 L0,14.2222222 L4.375,14.2222222 L4.375,26.6666667 L9.625,26.6666667 L9.625,14.2222222 L13.125,14.2222222 Z" id="f"></path>
                            </g>
                        </g>
                    </g>
                </g>
            </g>
        </g>
    </g>
</svg>