<?xml version="1.0" encoding="UTF-8"?>
<svg width="24px" height="38px" viewBox="0 0 24 38" version="1.1" xmlns="http://www.w3.org/2000/svg" xmlns:xlink="http://www.w3.org/1999/xlink">
    <!-- Generator: Sketch 53.2 (72643) - https://sketchapp.com -->
    <title>iconfinder_ic_phone_android_48px_352066</title>
    <desc>Created with Sketch.</desc>
    <g id="Page-1" stroke="none" stroke-width="1" fill="none" fill-rule="evenodd">
        <g id="Header-1" transform="translate(-950.000000, -35.000000)" fill="#C94645" fill-rule="nonzero">
            <g id="Group-7">
                <g id="Group-4" transform="translate(950.000000, 35.000000)">
                    <g id="iconfinder_ic_phone_android_48px_352066">
                        <path d="M18.6666667,0.666666667 L5.33333333,0.666666667 C2.575,0.666666667 0.333333333,2.90833333 0.333333333,5.66666667 L0.333333333,32.3333333 C0.333333333,35.0916667 2.575,37.3333333 5.33333333,37.3333333 L18.6666667,37.3333333 C21.425,37.3333333 23.6666667,35.0916667 23.6666667,32.3333333 L23.6666667,5.66666667 C23.6666667,2.90833333 21.425,0.666666667 18.6666667,0.666666667 Z M15.3333333,34 L8.66666667,34 L8.66666667,32.3333333 L15.3333333,32.3333333 L15.3333333,34 Z M20.75,29 L3.25,29 L3.25,5.66666667 L20.75,5.66666667 L20.75,29 Z" id="Shape"></path>
                    </g>
                </g>
            </g>
        </g>
    </g>
</svg>