<?xml version="1.0" encoding="UTF-8"?>
<svg width="40px" height="40px" viewBox="0 0 40 40" version="1.1" xmlns="http://www.w3.org/2000/svg" xmlns:xlink="http://www.w3.org/1999/xlink">
    <!-- Generator: Sketch 53.2 (72643) - https://sketchapp.com -->
    <title>Group 16</title>
    <desc>Created with Sketch.</desc>
    <defs>
        <linearGradient x1="50%" y1="-10.1829861%" x2="50%" y2="100%" id="linearGradient-1">
            <stop stop-color="#9C49BE" offset="0%"></stop>
            <stop stop-color="#CA2EA1" offset="43.5573269%"></stop>
            <stop stop-color="#E6695B" offset="67.3933699%"></stop>
            <stop stop-color="#FFD879" offset="100%"></stop>
        </linearGradient>
    </defs>
    <g id="Page-1" stroke="none" stroke-width="1" fill="none" fill-rule="evenodd">
        <g id="Header-1" transform="translate(-722.000000, -34.000000)" fill-rule="nonzero">
            <g id="Group-7">
                <g id="Group-5" transform="translate(440.000000, 34.000000)">
                    <g id="Group-17" transform="translate(138.000000, 0.000000)">
                        <g id="Group-16" transform="translate(144.000000, 0.000000)">
                            <rect id="Rectangle-8-Copy-4" fill="url(#linearGradient-1)" x="0" y="0" width="40" height="40" rx="4"></rect>
                            <g id="iconfinder_instagram_f_1217086" transform="translate(5.000000, 5.000000)" fill="#FFFFFF">
                                <path d="M29.9396378,15 C29.9396378,17.0963855 29.8973843,19.1987952 29.9517103,21.2951807 C30.0422535,25.0060241 27.7062374,27.873494 24.7303823,29.1506024 C23.5352113,29.6626506 22.2796781,29.9337349 20.9818913,29.9337349 C16.9195171,29.939759 12.8511066,29.9939759 8.78873239,29.9156627 C5.72837022,29.8554217 3.21126761,28.5783133 1.40643863,26.060241 C0.458752515,24.7349398 0.00603621694,23.2289157 0.00603621694,21.5963855 C0.00603621694,17.2771084 0.00603621694,12.9638554 0.00603621694,8.64457831 C0.00603621694,5.12048193 1.72635815,2.65662651 4.7806841,1.05421687 C6.10865191,0.361445783 7.55130785,0.0662650602 9.05432596,0.0602409639 C12.9959759,0.0602409639 16.943662,0.0361445783 20.8853119,0.0722891566 C23.945674,0.0963855422 26.498994,1.26506024 28.3822938,3.72289157 C29.4325956,5.09638554 29.9396378,6.6746988 29.9396378,8.40963855 C29.9396378,10.6024096 29.9396378,12.8012048 29.9396378,15 Z M2.2334004,15 C2.2334004,17.2108434 2.2334004,19.4156627 2.2334004,21.626506 C2.2334004,22.6144578 2.46277666,23.5421687 2.97585513,24.3795181 C4.32193159,26.5783133 6.35613682,27.6506024 8.87927565,27.6927711 C12.9295775,27.753012 16.9859155,27.7168675 21.0422535,27.7048193 C22.0382294,27.7048193 23.0040241,27.5 23.9034205,27.0722892 C26.3541247,25.9036145 27.7243461,24.0421687 27.7122736,21.246988 C27.6881288,16.9698795 27.7062374,12.6927711 27.7062374,8.41566265 C27.7062374,7.20481928 27.362173,6.09638554 26.6438632,5.12048193 C25.2555332,3.24698795 23.3360161,2.3253012 21.0422535,2.30120482 C16.9979879,2.25301205 12.9537223,2.28313253 8.90945674,2.28915663 C8.04627767,2.28915663 7.21327968,2.46385542 6.40442656,2.76506024 C4.18309859,3.59036145 2.11871227,5.68072289 2.21529175,8.75903614 C2.28772636,10.8433735 2.2334004,12.9216867 2.2334004,15 Z" id="Shape"></path>
                                <path d="M15.0060362,22.3855422 C11.1126761,22.3855422 7.97384306,19.2891566 7.96780684,15.4337349 C7.96177062,11.6385542 11.1247485,8.53012048 14.9939638,8.53012048 C18.8752515,8.52409639 22.0261569,11.626506 22.0321932,15.4518072 C22.0321932,19.2710843 18.8873239,22.3795181 15.0060362,22.3855422 Z M15.0060362,20.1566265 C17.6559356,20.1566265 19.804829,18.0421687 19.7987928,15.439759 C19.7927565,12.8614458 17.6438632,10.753012 15.0060362,10.753012 C12.3561368,10.753012 10.195171,12.8554217 10.195171,15.4518072 C10.2012072,18.0542169 12.3561368,20.1626506 15.0060362,20.1566265 Z" id="Shape"></path>
                                <path d="M22.8470825,5.42168675 C23.6619718,5.42168675 24.3259557,6.11445783 24.3259557,6.96385542 C24.3199195,7.81325301 23.6498994,8.5 22.8350101,8.4939759 C22.0321932,8.48795181 21.3742455,7.80120482 21.3742455,6.96987952 C21.3682093,6.12048193 22.0321932,5.42168675 22.8470825,5.42168675 Z" id="Path"></path>
                            </g>
                        </g>
                    </g>
                </g>
            </g>
        </g>
    </g>
</svg>