<?xml version="1.0" encoding="UTF-8"?>
<svg width="18px" height="18px" viewBox="0 0 18 18" version="1.1" xmlns="http://www.w3.org/2000/svg" xmlns:xlink="http://www.w3.org/1999/xlink">
    <!-- Generator: Sketch 53.2 (72643) - https://sketchapp.com -->
    <title>iconfinder_th-menu_216424</title>
    <desc>Created with Sketch.</desc>
    <g id="Page-1" stroke="none" stroke-width="1" fill="none" fill-rule="evenodd">
        <g id="Mobile" transform="translate(-286.000000, -16.000000)" fill="#FFFFFF" fill-rule="nonzero">
            <g id="iconfinder_th-menu_216424" transform="translate(286.000000, 16.000000)">
                <path d="M16,14 C17.103,14 18,14.897 18,16 C18,17.103 17.103,18 16,18 L2,18 C0.897,18 0,17.103 0,16 C0,14.897 0.897,14 2,14 L16,14 Z M16,7 C17.103,7 18,7.897 18,9 C18,10.103 17.103,11 16,11 L2,11 C0.897,11 0,10.103 0,9 C0,7.897 0.897,7 2,7 L16,7 Z M16,0 C17.103,0 18,0.897 18,2 C18,3.103 17.103,4 16,4 L2,4 C0.897,4 0,3.103 0,2 C0,0.897 0.897,0 2,0 L16,0 Z" id="Combined-Shape"></path>
            </g>
        </g>
    </g>
</svg>