<?xml version="1.0" encoding="UTF-8"?>
<svg width="40px" height="40px" viewBox="0 0 40 40" version="1.1" xmlns="http://www.w3.org/2000/svg" xmlns:xlink="http://www.w3.org/1999/xlink">
    <!-- Generator: Sketch 53.2 (72643) - https://sketchapp.com -->
    <title>Group 14</title>
    <desc>Created with Sketch.</desc>
    <g id="Page-1" stroke="none" stroke-width="1" fill="none" fill-rule="evenodd">
        <g id="Header-1" transform="translate(-578.000000, -34.000000)" fill-rule="nonzero">
            <g id="Group-7">
                <g id="Group-5" transform="translate(440.000000, 34.000000)">
                    <g id="Group-17" transform="translate(138.000000, 0.000000)">
                        <g id="Group-14">
                            <rect id="Rectangle-8-Copy-2" fill="#139BD0" x="0" y="0" width="40" height="40" rx="4"></rect>
                            <g id="iconfinder_335_Telegram_logo_4375490" transform="translate(7.000000, 9.000000)" fill="#FFFFFF">
                                <path d="M25.9259255,2.00277867 L22.0023474,20.6719859 C21.7063424,21.9896144 20.9343668,22.3174675 19.837334,21.6968904 L13.8591296,17.2520257 L10.9745929,20.0512948 C10.655414,20.3733311 10.3883482,20.6427876 9.77316422,20.6427876 L10.2026173,14.4996336 L21.2826545,4.39789134 C21.7643903,3.96459373 21.1782021,3.72444946 20.5339094,4.15780409 L6.83628826,12.8599118 L0.939305859,10.9977244 C-0.343401281,10.5936251 -0.366575245,9.70347736 1.20625861,9.08278624 L24.2717566,0.11715281 C25.3396242,-0.286889506 26.2741567,0.357183031 25.9259255,2.00277867 Z" id="Path"></path>
                            </g>
                        </g>
                    </g>
                </g>
            </g>
        </g>
    </g>
</svg>