<?xml version="1.0" encoding="UTF-8"?>
<svg width="40px" height="40px" viewBox="0 0 40 40" version="1.1" xmlns="http://www.w3.org/2000/svg" xmlns:xlink="http://www.w3.org/1999/xlink">
    <!-- Generator: Sketch 53.2 (72643) - https://sketchapp.com -->
    <title>Group 13</title>
    <desc>Created with Sketch.</desc>
    <g id="Page-1" stroke="none" stroke-width="1" fill="none" fill-rule="evenodd">
        <g id="Header-1" transform="translate(-626.000000, -34.000000)" fill-rule="nonzero">
            <g id="Group-7">
                <g id="Group-5" transform="translate(440.000000, 34.000000)">
                    <g id="Group-17" transform="translate(138.000000, 0.000000)">
                        <g id="Group-13" transform="translate(48.000000, 0.000000)">
                            <rect id="Rectangle-8-Copy" fill="#7F4DA0" x="0" y="0" width="40" height="40" rx="4"></rect>
                            <g id="if_phone8_216688" transform="translate(8.000000, 8.000000)" fill="#FFFFFF">
                                <g id="if_viber_853343" transform="translate(0.666667, 0.333333)">
                                    <path d="M4.419,1.728 C4.3,1.728 4.222,1.738 4.178,1.748 C3.836,1.82 3.414,2.072 2.505,2.748 C1.954,3.163 1.207,3.893 1.028,4.193 C0.661,4.822 0.59,5.36 1.139,6.879 C1.985,9.209 3.242,11.494 4.872,13.67 C8.012,17.857 11.942,20.884 16.888,22.923 C17.408,23.137 17.644,23.208 18.011,23.208 C18.073,23.208 18.143,23.206 18.224,23.202 C18.831,23.172 19.294,22.981 19.934,22.495 C20.655,21.946 21.66,20.695 21.923,20.015 C22.174,19.368 22.108,18.78 21.733,18.319 C21.525,18.068 19.982,16.81 19.272,16.311 C18.731,15.935 17.882,15.408 17.492,15.206 C16.985,14.947 16.456,14.899 15.959,15.068 C15.562,15.205 15.427,15.323 14.856,16.042 L14.245,16.777 C14.199,16.81 14.09,16.872 13.981,16.921 C13.548,17.122 12.947,17.014 11.894,16.489 C11.102,16.096 10.39,15.593 9.586,14.858 C8.905,14.235 8.216,13.422 7.827,12.788 C7.331,11.972 6.953,10.917 6.951,10.336 C6.951,10.089 7.051,9.736 7.169,9.565 C7.252,9.461 7.51,9.227 7.862,8.942 C8.698,8.267 8.891,8.049 9.004,7.647 C9.117,7.26 9.004,6.759 8.648,6.067 C7.987,4.773 6.126,2.458 5.499,2.042 C5.396,1.975 5.201,1.874 5.079,1.832 C4.901,1.768 4.644,1.728 4.419,1.728 Z" id="Shape"></path>
                                    <path d="M23.2,11.825 C22.25,0.375 12.345,0.849 12.237,0.858 L12.179,0.123 C12.22,0.119 16.426,-0.105 19.824,2.76 C22.224,4.785 23.608,7.815 23.935,11.765 L23.2,11.825 Z" id="Shape"></path>
                                    <path d="M21.327,12.467 C20.507,2.586 11.964,3.004 11.878,3.013 L11.815,2.278 C11.853,2.278 15.501,2.087 18.444,4.541 C20.557,6.304 21.775,8.95 22.062,12.407 L21.327,12.467 Z" id="Shape"></path>
                                    <path d="M18.711,12.467 C18.093,5.02 11.665,5.348 11.599,5.347 L11.52,4.614 C11.547,4.61 14.28,4.45 16.56,6.28 C18.251,7.637 19.222,9.699 19.447,12.406 L18.711,12.467 Z" id="Shape"></path>
                                </g>
                            </g>
                        </g>
                    </g>
                </g>
            </g>
        </g>
    </g>
</svg>